0
SECTION
2
HEADER
9
$INSUNITS
70
4
0
ENDSEC
0
SECTION
2
TABLES
0
TABLE
2
LAYER
0
LAYER
2
MURI
70
0
62
7
0
LAYER
2
PILASTRO
70
0
62
1
0
LAYER
2
INTERNI
70
0
62
4
0
LAYER
2
QUOTE
70
0
62
3
0
LAYER
2
CAMPITURA
70
0
62
8
0
LAYER
2
INFISSI
70
0
62
5
0
ENDTAB
0
ENDSEC
0
SECTION
2
BLOCKS
0
BLOCK
2
PORTA
10
0
20
0
0
LINE
8
INFISSI
10
0
20
0
11
900
21
0
0
LINE
8
INFISSI
10
900
20
0
11
900
21
40
0
ENDBLK
0
ENDSEC
0
SECTION
2
ENTITIES
0
LINE
8
MURI
10
0
20
0
11
10000
21
0
0
LINE
8
MURI
10
10000
20
0
11
10000
21
7000
0
LINE
8
MURI
10
10000
20
7000
11
0
21
7000
0
LINE
8
MURI
10
0
20
7000
11
0
21
0
0
CIRCLE
8
PILASTRO
10
2500
20
2500
40
300
0
LWPOLYLINE
8
INTERNI
70
1
10
3000
20
1000
10
7000
20
1000
10
7000
20
4000
10
3000
20
4000
0
HATCH
8
CAMPITURA
2
SOLID
70
1
10
3200
20
1200
10
6800
20
1200
10
6800
20
3800
10
3200
20
3800
0
INSERT
2
PORTA
8
INFISSI
10
2000
20
0
0
INSERT
2
PORTA
8
INFISSI
10
8000
20
0
0
TEXT
8
QUOTE
10
4000
20
7200
40
250
1
PIANO TERRA
0
ENDSEC
0
EOF
